# xmcd CD database file
#
# Track frame offsets:
#	150
#	17354
#	29392
#	48927
#	66021
#	77770
#	89316
#	103711
#	127255
#	143467
#	159199
#	174973
#	186658
#	199797
#	214796
#
# Disc length: 3050 seconds
#
# Revision: 0
# Processed by: cddbd v1.5.1PL0 Copyright (c) Steve Scherf et al.
# Submitted via: CDex 1.51
#
DISCID=c30be80f
DTITLE=Big Bears Band - Bear Warning!
DYEAR=2003
DGENRE=Jazz
TTITLE0=Blues Fills Up My Mind
TTITLE1=The Hustle Is On
TTITLE2=Never Trust A Woman
TTITLE3=Get Me While I'm Free
TTITLE4=Workin' Like A Mule
TTITLE5=I Need A Break
TTITLE6=I'm Crackin' Up Over You
TTITLE7=Right Place, Wrong Time
TTITLE8=That's The Thing
TTITLE9=If You Love Me Like You Say
TTITLE10=Bear Warning Blues
TTITLE11=Ain't No Sunshine
TTITLE12=My Baby She's Got It
TTITLE13=You Give Me Nothing But The Blues
TTITLE14=Tell Me What's The Reason
EXTD=YEAR: 2003
EXTT0=
EXTT1=
EXTT2=
EXTT3=
EXTT4=
EXTT5=
EXTT6=
EXTT7=
EXTT8=
EXTT9=
EXTT10=
EXTT11=
EXTT12=
EXTT13=
EXTT14=
PLAYORDER=
